<?xml version="1.0" encoding="utf-8"?>
<!-- Generator: Adobe Illustrator 15.0.0, SVG Export Plug-In . SVG Version: 6.00 Build 0)  -->
<!DOCTYPE svg PUBLIC "-//W3C//DTD SVG 1.1//EN" "http://www.w3.org/Graphics/SVG/1.1/DTD/svg11.dtd">
<svg version="1.1" id="Calque_1" xmlns="http://www.w3.org/2000/svg" xmlns:xlink="http://www.w3.org/1999/xlink" x="0px" y="0px"
	 width="520px" height="158px" viewBox="0 0 520 158" enable-background="new 0 0 520 158" xml:space="preserve">
<path fill-rule="evenodd" clip-rule="evenodd" fill="#0FA5E4" d="M503.5,70.5v10.55h-7v-10.4h-14.55v9.2l19,15.45
	c1.767,1.4,2.649,3.316,2.649,5.75V111c0,4.1-2.033,6.15-6.1,6.15h-16.55c-4.066,0-6.101-2.051-6.101-6.15V99.05h7.101V110.9h14.55
	v-10.5l-18.85-15.45c-1.801-1.467-2.7-3.351-2.7-5.65v-8.8c0-4.067,2.033-6.1,6.1-6.1H497.4C501.467,64.4,503.5,66.433,503.5,70.5z
	 M320.4,70.5v19l-2.45,2.55H297.9v19.101h15.5v-9.65h7v9.5c0,4.1-2.017,6.15-6.051,6.15H297c-4.066,0-6.1-2.051-6.1-6.15V70.5
	c0-4.067,2.033-6.1,6.1-6.1h17.35C318.384,64.4,320.4,66.433,320.4,70.5z M339.5,65.85c2.4-0.367,4.816-0.75,7.25-1.15
	c2.866-0.434,5.267-0.65,7.2-0.65c3.967,0,5.95,1.967,5.95,5.9v11.8H352.8v-10.9l-13.3,0.45v45.851h-7.2V64.4h7.2V65.85z
	 M376.3,65.85c2.834-0.367,5.667-0.75,8.5-1.15c3.434-0.434,6.267-0.65,8.5-0.65c2.2,0,3.816,0.667,4.851,2
	c3.066-0.4,6.1-0.816,9.1-1.25c3.934-0.5,6.917-0.75,8.95-0.75c3.967,0,5.95,1.967,5.95,5.9v47.2h-7.2v-46.3L399.2,71.3v45.851
	h-7.15v-46.3L376.3,71.3v45.851h-7.2V64.4h7.2V65.85z M463.3,70.5v19l-2.45,2.55H440.8v19.101h15.5v-9.65h7v9.5
	c0,4.1-2.017,6.15-6.05,6.15H439.9c-4.067,0-6.101-2.051-6.101-6.15V70.5c0-4.067,2.033-6.1,6.101-6.1h17.35
	C461.283,64.4,463.3,66.433,463.3,70.5z M440.8,70.4v15.9h15.5V70.4H440.8z M313.4,70.4h-15.5v15.9h15.5V70.4z M219.85,75.7
	c0,12.233-4.317,22.666-12.95,31.3c-8.633,8.667-19.066,13-31.3,13c-12.167,0-22.567-4.283-31.2-12.85l4.5-11.5
	c0.167,0.199,0.35,0.399,0.55,0.6c6.4,6.366,14.117,9.55,23.15,9.55s16.733-3.184,23.1-9.55c6.4-6.4,9.6-14.116,9.6-23.15
	c0-7.367-2.117-13.85-6.35-19.45l11.15-5.75C216.6,55.8,219.85,65.067,219.85,75.7z M256.1,65.85c2.867-0.367,5.733-0.733,8.6-1.1
	c3.6-0.467,6.434-0.7,8.5-0.7c4,0,6,1.967,6,5.9v47.2H272v-46.3l-15.9,0.45v45.851h-7.2V32.3h7.2V65.85z M34.65,75.7
	c0-10.633,3.25-19.9,9.75-27.8l11.15,5.75c-4.233,5.6-6.35,12.083-6.35,19.45c0,9.034,3.2,16.75,9.6,23.15
	c6.367,6.366,14.067,9.55,23.1,9.55s16.75-3.184,23.15-9.55c0.2-0.2,0.383-0.4,0.55-0.6l4.5,11.5
	C101.467,115.717,91.067,120,78.9,120c-12.233,0-22.667-4.333-31.3-13C38.967,98.366,34.65,87.934,34.65,75.7z"/>
<path fill-rule="evenodd" clip-rule="evenodd" fill="#6060C4" d="M163,65.3c-4.9,2.067-9.017,4.934-12.35,8.6
	c-1.767,1.934-3.517,4.217-5.25,6.85c-1.5,1.767-7.5,10.85-18,27.25h-0.15c-10.533-16.4-16.533-25.483-18-27.25
	c-1.733-2.633-3.483-4.917-5.25-6.85c-3.333-3.667-7.45-6.533-12.35-8.6C86.783,63.2,74.233,57.25,54,47.45
	c-10.133-4.9-19.783-9.6-28.95-14.1L14.3,14.85C54.967,27.517,76.917,34.4,80.15,35.5c6.8,2.267,13.35,5.283,19.65,9.05
	c11.8,7.067,20.983,15.767,27.55,26.1c6.533-10.333,15.7-19.033,27.5-26.1c6.3-3.767,12.85-6.783,19.65-9.05
	c3.233-1.1,25.183-7.983,65.85-20.65l-10.8,18.5c-9.133,4.5-18.767,9.2-28.9,14.1C180.417,57.25,167.867,63.2,163,65.3z"/>
<path fill-rule="evenodd" clip-rule="evenodd" fill="#645DBD" d="M156.2,33.1c-6.467,2.733-13.2,6.983-20.2,12.75
	c-3.5,2.933-6.383,5.617-8.65,8.05c-2.3-2.433-5.2-5.117-8.7-8.05c-7-5.767-13.733-10.017-20.2-12.75l-0.15-0.5
	c4.633-1.7,10.5-2.95,17.6-3.75c1.867-0.2,3.733-0.35,5.6-0.45h11.35c1.967,0.1,3.933,0.25,5.9,0.45c7.1,0.8,12.983,2.05,17.65,3.75
	L156.2,33.1z"/>
<path fill-rule="evenodd" clip-rule="evenodd" fill="#FFFEFF" d="M200.45,72.4c0,7.934-2.817,14.716-8.45,20.35
	c-5.6,5.6-12.383,8.4-20.35,8.4s-14.75-2.801-20.35-8.4c-0.333-0.366-0.667-0.717-1-1.05l7.35-5.05h0.05
	c3.933,3.933,8.683,5.899,14.25,5.899c5.533,0,10.267-1.967,14.2-5.899c3.934-3.934,5.9-8.667,5.9-14.2
	c0-4.733-1.417-8.867-4.25-12.4l7.45-4.2C198.717,60.65,200.45,66.167,200.45,72.4z M54.05,72.4c0-6.233,1.733-11.75,5.2-16.55
	l7.45,4.2c-2.833,3.534-4.25,7.667-4.25,12.4c0,5.533,1.966,10.267,5.9,14.2c3.933,3.933,8.667,5.899,14.2,5.899
	c5.567,0,10.3-1.967,14.2-5.899c0.033,0,0.067,0,0.1,0l7.35,5.05c-0.333,0.333-0.667,0.684-1,1.05c-5.6,5.6-12.383,8.4-20.35,8.4
	S68.1,98.35,62.5,92.75C56.867,87.116,54.05,80.333,54.05,72.4z"/>
<path fill-rule="evenodd" clip-rule="evenodd" fill="#2A86D8" d="M115.7,117.05c-0.167-3.366,0.15-6.75,0.95-10.149l1.15-3.5
	l9.55,16.5l9.5-16.5l1.15,3.5c0.8,3.399,1.117,6.783,0.95,10.149c-0.167,3.4-1.034,7.05-2.6,10.95c-1.533,3.833-4.533,10.233-9,19.2
	c-4.5-8.967-7.517-15.367-9.05-19.2C116.733,124.1,115.867,120.45,115.7,117.05z"/>
</svg>
